<svg width="49" height="48" viewBox="0 0 49 48" fill="none" xmlns="http://www.w3.org/2000/svg">
<path fill-rule="evenodd" clip-rule="evenodd" d="M22.2169 0.307382C20.7901 0.783367 20.0217 1.27329 17.2929 3.44712C14.1574 5.94503 9.29964 9.79735 5.81984 12.5458C4.39581 13.6704 2.81076 14.965 2.29744 15.4228C1.24374 16.362 0.384818 17.8258 0.126238 19.1226C0.0240091 19.6346 -0.0205908 24.2828 0.00897546 31.3043L0.0569161 42.6579L0.540834 43.7189C1.72917 46.3243 4.47248 48 7.54905 48C8.78482 48 9.20576 47.902 12.8266 46.7712C14.9906 46.0954 18.4147 45.0047 20.4359 44.3474C22.4571 43.6901 24.2988 43.1519 24.5285 43.1514C24.7581 43.1508 25.9602 43.4846 27.1994 43.8931C28.4389 44.3014 31.8522 45.3926 34.7848 46.3178C39.8563 47.9178 40.1836 48 41.4838 48C44.628 48 47.3511 46.3076 48.5134 43.6308L49 42.5104V30.6614V18.8123L48.5213 17.8058C48.0073 16.7254 47.2942 15.7955 46.5026 15.1736C46.2315 14.9606 44.8325 13.8457 43.3936 12.696C41.9547 11.5463 39.5832 9.65814 38.1236 8.50008C36.664 7.34217 34.0508 5.26698 32.3168 3.88873C28.9424 1.20686 28.3033 0.793277 26.7859 0.309395C25.4948 -0.10233 23.4485 -0.103259 22.2169 0.307382ZM26.533 2.15233C27.0383 2.32993 27.9027 2.83084 28.4539 3.26549C29.7086 4.25462 34.6575 8.1681 35.2191 8.61513C35.4488 8.79799 37.8061 10.6669 40.4573 12.7683C45.7776 16.985 45.8902 17.0855 46.5407 18.1929L46.9955 18.9671L47.0414 30.5493C47.0867 41.9785 47.0827 42.1411 46.7409 42.8592C45.9943 44.4278 44.9913 45.3248 43.3191 45.92C41.9268 46.4153 40.8325 46.3107 37.9753 45.4086C36.5972 44.9735 33.5529 44.0124 31.2101 43.2728C28.8674 42.5333 26.8864 41.8727 26.8081 41.8048C26.7296 41.7369 27.0678 41.4401 27.5598 41.145C28.6925 40.4655 29.9815 39.4242 32.2698 37.3399C36.2978 33.6709 38.3815 30.7057 38.9845 27.7843C39.6677 24.4747 38.8564 21.7434 36.5711 19.6588C33.6055 16.9537 30.0772 17.3252 25.656 20.808L24.5285 21.6962L23.4318 20.8339C20.8257 18.7842 18.9149 17.9224 16.9281 17.9002C12.2546 17.8482 8.82775 22.8414 10.0856 27.8705C10.5967 29.9147 11.9731 32.3588 13.6977 34.2847C15.7259 36.5496 19.632 39.9914 21.4295 41.0973C21.9557 41.4212 22.3233 41.7407 22.2463 41.8072C22.1693 41.8738 20.1896 42.5333 17.8468 43.2728C7.26408 46.6135 7.68402 46.5172 5.99674 45.9901C4.14325 45.4112 3.11193 44.5342 2.31565 42.8592C1.97438 42.1414 1.97021 41.9742 2.01547 30.5493L2.06141 18.9671L2.46014 18.2703C2.6793 17.8871 3.03209 17.3814 3.2439 17.1465C3.58984 16.7629 6.60928 14.289 7.92372 13.3124C8.20803 13.1011 9.52348 12.0636 10.8469 11.007C12.1704 9.95033 13.6593 8.76579 14.1555 8.37466C14.6518 7.98353 15.1404 7.59023 15.2413 7.50057C15.788 7.01468 21.26 2.7494 21.6067 2.53866C21.8321 2.40193 22.45 2.15728 22.98 1.99532C24.1326 1.6429 25.2205 1.69105 26.533 2.15233ZM18.9695 20.2017C20.2442 20.7425 21.5194 21.6403 22.9693 23.0175C23.751 23.7599 24.2958 24.1543 24.5396 24.1543C24.7844 24.1543 25.3211 23.7629 26.0988 23.0173C28.2134 20.9896 30.1751 19.8794 31.9414 19.7103C33.6838 19.5437 35.6066 20.7995 36.6119 22.7607C37.0465 23.6086 37.1386 23.9965 37.1967 25.2226C37.2837 27.0591 37.0529 28.0427 36.1208 29.806C35.1033 31.731 33.5158 33.635 30.9774 35.9742C28.5737 38.1897 25.1336 40.7224 24.5285 40.7224C23.9117 40.7224 20.4408 38.1568 17.9789 35.8814C14.8133 32.9554 13.1292 30.7174 12.2442 28.2604C11.8495 27.1648 11.8061 26.8396 11.8616 25.3958C11.9165 23.9609 11.9857 23.6475 12.4425 22.7607C13.1854 21.3184 14.4408 20.2246 15.8413 19.7995C16.535 19.5889 17.9566 19.7717 18.9695 20.2017Z" fill="#FF1212"/>
</svg>
